<?xml version="1.0" encoding="UTF-8" standalone="no"?>
<svg
   xmlns:dc="http://purl.org/dc/elements/1.1/"
   xmlns:cc="http://creativecommons.org/ns#"
   xmlns:rdf="http://www.w3.org/1999/02/22-rdf-syntax-ns#"
   xmlns:svg="http://www.w3.org/2000/svg"
   xmlns="http://www.w3.org/2000/svg"
   xmlns:sodipodi="http://sodipodi.sourceforge.net/DTD/sodipodi-0.dtd"
   xmlns:inkscape="http://www.inkscape.org/namespaces/inkscape"
   id="bb8a6def-7b5f-4977-9cdb-6ed5386a2dfe"
   data-name="Layer 1"
   width="1050.8619"
   height="704.35284"
   viewBox="0 0 1050.8619 704.35284"
   version="1.1"
   sodipodi:docname="signup.svg"
   inkscape:version="0.92.5 (2060ec1f9f, 2020-04-08)">
  <metadata
     id="metadata32">
    <rdf:RDF>
      <cc:Work
         rdf:about="">
        <dc:format>image/svg+xml</dc:format>
        <dc:type
           rdf:resource="http://purl.org/dc/dcmitype/StillImage" />
      </cc:Work>
    </rdf:RDF>
  </metadata>
  <defs
     id="defs30" />
  <sodipodi:namedview
     pagecolor="#ffffff"
     bordercolor="#666666"
     borderopacity="1"
     objecttolerance="10"
     gridtolerance="10"
     guidetolerance="10"
     inkscape:pageopacity="0"
     inkscape:pageshadow="2"
     inkscape:window-width="1920"
     inkscape:window-height="1016"
     id="namedview28"
     showgrid="false"
     inkscape:zoom="0.94769093"
     inkscape:cx="295.4701"
     inkscape:cy="300.60925"
     inkscape:window-x="0"
     inkscape:window-y="27"
     inkscape:window-maximized="1"
     inkscape:current-layer="bb8a6def-7b5f-4977-9cdb-6ed5386a2dfe" />
  <path
     d="m 1039.2548,373.42256 c 0,136.49381 -88.30502,252.79186 -211.99096,297.04433 A 319.13495,312.65497 0 0 1 769.25395,685.38377 324.88871,318.2919 0 0 1 607.1951,670.96507 C 482.72653,627.07667 393.77595,510.38581 393.83468,373.35549 c 0,-174.53809 144.48609,-316.090418 322.71005,-316.090418 a 321.30534,314.78129 0 0 1 187.76862,59.016068 c 81.70406,57.34907 134.94145,151.15201 134.94145,257.14142 z"
     id="path2"
     inkscape:connector-curvature="0"
     style="fill:#c6c6c6;stroke-width:0.9679302;fill-opacity:1" />
  <path
     d="m 827.26379,670.46688 a 319.13495,312.65497 0 0 1 -58.00989,14.91688 324.88871,318.2919 0 0 1 -162.05885,-14.4187 l 14.90308,-58.58494 0.8996,-3.51605 30.41308,0.11497 152.78877,0.5365 1.95582,5.6621 z"
     id="path4"
     inkscape:connector-curvature="0"
     style="fill:#2f2e41;stroke-width:0.9679302" />
  <rect
     id="effaf695-3865-40c6-8918-ced0238239c2"
     data-name="Rectangle 25"
     width="280.31866"
     height="310.7493"
     x="11.60716"
     y="14.772749"
     style="fill:#c6c6c6;stroke-width:0.9679302;fill-opacity:1" />
  <rect
     id="f33d627f-c769-4bde-9d74-ef156faf640e"
     data-name="Rectangle 25-2"
     x="16.605253"
     y="21.346918"
     width="269.83255"
     height="297.6019"
     style="fill:#ffffff;stroke-width:0.9679302" />
  <ellipse
     id="b5fd4af9-5b07-4da2-8ccf-5b3d4ac887f6"
     data-name="Ellipse 116"
     cx="151.76698"
     cy="293.54895"
     rx="15.125322"
     ry="14.818206"
     style="fill:#c6c6c6;stroke-width:0.9679302;fill-opacity:1" />
  <rect
     id="f05405a0-af73-4807-bbd1-d761cdd06c65"
     data-name="Rectangle 31"
     x="62.337181"
     y="126.69155"
     width="86.874519"
     height="8.7067862"
     style="fill:#c6c6c6;stroke-width:0.9679302;fill-opacity:1" />
  <rect
     id="a05e4a04-50b7-46b0-b842-8db21044ae7a"
     data-name="Rectangle 32"
     x="62.337181"
     y="152.78218"
     width="131.1171"
     height="8.7067862"
     style="fill:#0679fb;stroke-width:0.9679302;fill-opacity:1" />
  <rect
     id="bdce3bac-3998-4a72-bc14-4aa79023038d"
     data-name="Rectangle 38"
     x="62.337181"
     y="179.0367"
     width="118.24683"
     height="8.7067862"
     style="fill:#c6c6c6;stroke-width:0.9679302;fill-opacity:1" />
  <rect
     id="e1177af0-2f80-4461-b67e-43945f3b6fee"
     data-name="Rectangle 39"
     x="62.337181"
     y="204.59755"
     width="182.59816"
     height="8.7067862"
     style="fill:#0679fb;stroke-width:0.9679302;fill-opacity:1" />
  <rect
     id="b290cdc3-2096-427b-bfd4-6b657da823ea"
     data-name="Rectangle 40"
     x="64.235291"
     y="228.94072"
     width="148.81334"
     height="8.7067862"
     style="fill:#c6c6c6;stroke-width:0.9679302;fill-opacity:1" />
  <g
     id="b96c6486-fa38-4cba-8e5e-13dca7f44a0c"
     data-name="Group 52"
     transform="matrix(0.97790926,0,0,0.95805299,11.60716,14.772749)">
    <path
       id="b0fbfc35-67c9-42b4-b2fe-33d0d7288754"
       data-name="Path 846"
       d="m 482.17805,625.61438 a 29.75626,29.75626 0 0 1 2.991,3.6 l 140.109,-3.428 16.345,-29.868 48.3,18.776 -23.8,55.687 a 22.609,22.609 0 0 1 -23.5,13.561 l -158.3,-19.123 a 29.665,29.665 0 1 1 -2.15,-39.211 z"
       transform="translate(-74.56905,-97.82358)"
       inkscape:connector-curvature="0"
       style="fill:#9f616a" />
    <path
       id="a6a8f1c9-3ab8-4f6f-ba9b-45acc2f7af89"
       data-name="Path 852"
       d="m 670.75807,455.06457 65.569,-21.489 19.258,-26.411 93.716,5.546 13.759,30.82 49.972,23.613 -7.68,142.624 -13.138,133.477 c -67.558,-34.983 -193.63907,-8.31221 -194.74307,-7.87819 z"
       transform="translate(-74.56905,-97.82358)"
       inkscape:connector-curvature="0"
       style="fill:#0679fb;fill-opacity:1" />
    <path
       id="fc06e97d-785e-4845-9aa0-60a5889f9ce3"
       data-name="Path 853"
       d="m 684.775,648.11407 -66.694,-26.684 0.284,-1.187 c 0.286,-1.2 28.672,-119.817 32.441,-138.879 3.926,-19.859 18.271,-25.35 18.88,-25.573 l 0.445,-0.164 26.394,8.034 11.592,91.081 z"
       transform="translate(-74.56905,-97.82358)"
       inkscape:connector-curvature="0"
       style="fill:#0679fb;fill-opacity:1" />
    <path
       id="b248559b-61d8-49e2-8eef-81cc9521c19e"
       data-name="Path 855"
       d="m 828.7801,737.37719 a 29.72053,29.72053 0 0 1 4.677,0.258 l 92.747,-105.072 -10.788,-32.286 46.608,-22.652 24.655,55.313 a 22.608,22.608 0 0 1 -6.034,26.453 l -121.65,103.073 a 29.6649,29.6649 0 1 1 -30.215,-25.087 z"
       transform="translate(-74.56905,-97.82358)"
       inkscape:connector-curvature="0"
       style="fill:#9f616a" />
    <path
       id="b0e9bc84-32e8-4599-bd8d-d35670d3692b"
       data-name="Path 856"
       d="m 918.801,642.79113 -38.689,-91.006 15.09,-63.391 16.259,-20.541 a 9.36609,9.36609 0 0 1 7.524,0.07 c 6,2.413 11.1,9.81 15.177,21.984 l 36.259,103.279 z"
       transform="translate(-74.56905,-97.82358)"
       inkscape:connector-curvature="0"
       style="fill:#0679fb;fill-opacity:1" />
    <path
       id="b58b0f1b-b11b-4f57-8de2-a939101b4938"
       data-name="Path 857"
       d="m 718.072,373.4422 v -68.61 a 91.938005,91.938005 0 1 1 183.875,-0.60916 q 10e-4,0.30455 0,0.60916 v 68.61 a 12.364,12.364 0 0 1 -12.35,12.35 H 730.422 a 12.364,12.364 0 0 1 -12.35,-12.35 z"
       transform="translate(-74.56905,-97.82358)"
       inkscape:connector-curvature="0"
       style="fill:#2f2e41" />
    <circle
       id="ba54abe3-4119-45e5-b5c1-150877d750f7"
       data-name="Ellipse 148"
       cx="716.54791"
       cy="218.96507"
       r="67.404999"
       style="fill:#9f616a" />
    <path
       id="b6bcc4bf-1738-426f-8fbf-3ee273a728b5"
       data-name="Path 858"
       d="m 696.322,310.32116 a 72.809,72.809 0 0 1 72.727,-72.727 h 13.723 a 72.808,72.808 0 0 1 72.726,72.727 v 1.372 h -29 l -9.891,-27.7 -1.978,27.7 h -14.986 l -4.99,-13.974 -1,13.974 h -97.331 z"
       transform="translate(-74.56905,-97.82358)"
       inkscape:connector-curvature="0"
       style="fill:#2f2e41" />
    <path
       id="be96ad09-85ff-4345-abef-5a49918f7c18"
       data-name="Path 859"
       d="m 784.484,393.508 a 12.16709,12.16709 0 0 1 -0.967,-12.918 c 14.541,-27.658 34.9,-78.765 7.877,-110.283 l -1.938,-2.262 h 78.456 v 117.79 l -71.271,12.575 a 12.60771,12.60771 0 0 1 -2.185,0.193 12.3,12.3 0 0 1 -9.967,-5.092 z"
       transform="translate(-74.56905,-97.82358)"
       inkscape:connector-curvature="0"
       style="fill:#2f2e41" />
  </g>
  <g
     id="b2dad932-78e1-44e1-9682-073c8202f887"
     data-name="Group 51"
     transform="matrix(0.97790926,0,0,0.95805299,11.60716,14.772749)">
    <path
       id="e043db59-b600-449e-8c52-e1eb73379667"
       data-name="Path 341"
       d="M 217.64577,123.08567 A 32.89091,32.89091 0 1 0 250.535,155.9783 v -0.002 a 32.89088,32.89088 0 0 0 -32.89091,-32.89091 z m 0,9.86638 a 9.8664,9.8664 0 1 1 -9.86636,9.86644 v 0 a 9.86643,9.86643 0 0 1 9.86636,-9.86644 z m 0,47.50128 a 23.961,23.961 0 0 1 -19.73454,-10.53178 c 0.15847,-6.57819 13.15636,-10.1991 19.73454,-10.1991 6.57818,0 19.57608,3.62091 19.73455,10.1991 a 23.99974,23.99974 0 0 1 -19.73455,10.53178 z"
       transform="translate(-74.56905,-97.82358)"
       inkscape:connector-curvature="0"
       style="fill:#0679fb;fill-opacity:1" />
  </g>
  <path
     id="bcfa45dc-2c5a-4ac5-8376-9a2a23e225d0"
     data-name="Path 842"
     d="m 151.89705,299.22922 c 13.25067,-23.78941 44.99361,-38.8548 70.96003,-25.27535 11.68797,6.11142 20.97909,16.92208 23.92847,29.69964 3.42268,14.84311 -3.7894,28.99643 -11.23423,41.46645 -4.04072,6.76864 -8.46869,13.39933 -11.81314,20.53874 -3.46278,7.39329 -5.93787,15.93817 -3.33076,23.98102 2.34698,7.24576 8.23204,12.51601 14.67646,16.38941 a 109.35789,107.1374 0 0 0 22.55157,9.86795 132.744,130.04866 0 0 0 50.34766,6.38159 137.69229,134.89648 0 0 0 25.09315,-3.974 c 8.74544,-2.18436 17.32757,-4.95314 26.08768,-7.0896 14.62561,-3.55916 31.3019,-5.32869 45.17061,1.82031 13.47363,6.9478 19.50342,21.47858 21.3683,35.61466 3.44419,26.10311 -7.12016,53.1911 -26.19428,71.47075 -9.15128,8.77002 -20.66714,16.01577 -33.2098,18.97999 -10.94378,2.58674 -24.99634,2.421 -33.7056,-5.59407 -9.71846,-8.94534 -7.43211,-23.28931 0.28653,-32.72709 9.85243,-12.04177 26.54339,-14.93413 41.43793,-15.2273 16.94325,-0.3334 33.87086,2.13838 50.80434,0.60166 a 78.036181,76.45167 0 0 0 24.02527,-5.67742 60.882283,59.64608 0 0 0 18.10599,-12.00345 c 10.45385,-9.95034 17.50458,-23.20596 21.01038,-36.98851 4.22164,-16.57432 3.30142,-33.99363 0.0244,-50.64172 a 233.09521,228.36226 0 0 0 -6.73584,-25.39511 c -1.13144,-3.51606 -6.79842,-2.01191 -5.65818,1.52809 10.09202,31.35133 15.71891,67.6031 -3.77962,96.71162 a 58.779466,57.585959 0 0 1 -35.14899,24.7877 c -16.87578,4.10909 -34.58376,2.07802 -51.7402,1.46678 -16.31349,-0.58153 -34.22683,0.046 -48.21093,9.35443 -11.47185,7.63473 -19.4956,22.15689 -16.02793,35.86663 3.34347,13.22113 16.3125,19.9275 29.28349,20.96029 13.60956,1.08643 27.00203,-3.38864 38.43183,-10.38626 23.77591,-14.5557 39.58479,-40.15487 42.89306,-67.29555 1.72405,-14.14182 -0.0303,-29.37487 -6.57644,-42.21086 a 42.180317,41.323853 0 0 0 -15.49693,-16.92017 c -6.65956,-3.99988 -14.3518,-5.96868 -22.07728,-6.66518 -17.55151,-1.58366 -34.41458,4.31986 -51.06446,8.83612 a 141.59966,138.7245 0 0 1 -26.03977,4.86979 130.04478,127.40424 0 0 1 -25.69163,-0.41005 126.50702,123.93831 0 0 1 -24.89464,-5.413 99.641805,97.618596 0 0 1 -22.59753,-10.00878 c -6.24395,-3.91173 -11.64396,-9.51442 -11.95103,-17.14915 -0.33346,-8.27853 3.92729,-16.02248 7.97974,-23.00189 8.00615,-13.78734 17.89574,-27.2729 19.98358,-43.41321 1.82869,-14.11883 -3.97031,-28.03455 -13.9841,-38.10465 a 52.583159,51.515467 0 0 0 -38.85918,-15.7935 c -14.85738,0.41675 -29.08303,6.74661 -40.01116,16.46797 a 65.870012,64.532533 0 0 0 -13.49515,16.79467 c -1.81011,3.24876 3.25448,6.15262 5.06655,2.90099 z"
     inkscape:connector-curvature="0"
     style="fill:#e8f3fe;stroke-width:0.9679302;fill-opacity:1" />
</svg>
